<?xml version="1.0" ?><svg id="Layer_1" style="enable-background:new 0 0 200 200;" version="1.1" viewBox="0 0 200 200" xml:space="preserve" xmlns="http://www.w3.org/2000/svg" xmlns:xlink="http://www.w3.org/1999/xlink"><style type="text/css">
	.st0{fill:#10214F;}
	.st1{fill:#FFFFFF;}
	.st2{fill:#01A7FF;}
	.st3{fill:#DB0C0B;}
	.st4{fill:#0D9F16;}
	.st5{fill:#AC080C;}
	.st6{fill:#FF9534;}
	.st7{fill:#62ACC7;}
	.st8{fill:#007AE5;}
	.st9{fill:#00A9FF;}
	.st10{fill:#FFC731;}
	.st11{fill:#00B9D8;}
	.st12{fill:#54135D;}
	.st13{fill:#3C3D3B;}
	.st14{fill:#58B74A;}
	.st15{fill:#F75EAE;}
	.st16{fill:#FF552E;}
	.st17{fill:#F95850;}
	.st18{fill:#0F7C77;}
	.st19{fill:#8921B4;}
	.st20{fill-rule:evenodd;clip-rule:evenodd;fill:#FDFDFD;}
	.st21{fill:#FDFDFD;}
	.st22{fill:#4C993F;}
	.st23{fill:#161616;}
	.st24{fill:url(#XMLID_21_);}
	.st25{fill-rule:evenodd;clip-rule:evenodd;fill:#FFFFFF;}
	.st26{fill:#1A1A1A;}
	.st27{fill-rule:evenodd;clip-rule:evenodd;fill:#7EB900;}
	.st28{fill-rule:evenodd;clip-rule:evenodd;fill:#FFB801;}
	.st29{fill-rule:evenodd;clip-rule:evenodd;fill:#01A3EE;}
	.st30{fill-rule:evenodd;clip-rule:evenodd;fill:#F14F21;}
</style><g><path class="st9" d="M169.1,100c0.4,14.4-11.9,29.7-25.5,43.6c-14,13.6-29.2,25.9-43.6,25.5   c-14.4,0.4-29.7-11.9-43.6-25.5c-13.6-14-25.9-29.2-25.5-43.6c-0.4-14.4,11.9-29.7,25.5-43.6c14-13.6,29.2-25.9,43.6-25.5   c14.4-0.4,29.7,11.9,43.6,25.5C157.2,70.3,169.5,85.6,169.1,100z" id="XMLID_43_"/><path class="st1" d="M140.1,80.5c-2.8,1-6,1.6-9.3,1.8c3.3-1.8,5.7-4.6,6.5-8.1c-3,1.5-6.3,2.5-10,3   c-3.2-3.3-7.5-5.5-12.1-5.7C106.3,71.1,99,78.6,99,87.7c0,1.3,0.1,2.6,0.4,3.8c-13.9-0.7-26.3-7.1-33.6-15.8   c-1.6,2.4-2.6,5.1-2.8,8c-0.4,5.3,2.5,10,7,12.8c-2.8-0.1-5.3-0.7-7.6-1.8c0,0.1,0,0.1,0,0.2c0,2,0.4,3.9,1.1,5.6   c2.1,4.9,6.8,8.7,12.5,10c-1.4,0.3-2.9,0.5-4.4,0.5c-1.1,0-2.1-0.2-3.2-0.4c2.4,6.3,8.7,11.3,15.9,11.7c-5.5,4.2-12.2,6.3-19.8,5.5   c-1.3-0.1-2.6-0.3-3.9-0.6c7.7,5.1,16.2,8.8,25.1,9.3c24.1,1.1,41.2-19.1,45.7-36.6c0.8-3.2,1.1-6.4,1-9.5c0-0.7-0.1-1.4-0.1-2   C135.5,86,138.2,83.4,140.1,80.5z" id="XMLID_9_"/></g></svg>